<?xml version="1.0" standalone="no"?>
<!DOCTYPE svg PUBLIC "-//W3C//DTD SVG 20010904//EN"
 "http://www.w3.org/TR/2001/REC-SVG-20010904/DTD/svg10.dtd">
<svg version="1.0" xmlns="http://www.w3.org/2000/svg"
 width="517.000000pt" height="517.000000pt" viewBox="0 0 517.000000 517.000000"
 preserveAspectRatio="xMidYMid meet">
<metadata>
Created by potrace 1.11, written by Peter Selinger 2001-2013
</metadata>
<g transform="translate(0.000000,517.000000) scale(0.100000,-0.100000)"
fill="#000000" stroke="none">
<path d="M2540 4400 l0 -770 1315 0 1315 0 0 770 0 770 -1315 0 -1315 0 0
-770z m1454 498 c101 -53 161 -174 132 -266 -6 -17 -2 -24 17 -31 59 -23 85
-101 50 -151 -27 -39 -45 -49 -89 -50 -36 0 -47 5 -73 35 l-31 36 -45 -16
c-60 -20 -94 -19 -157 5 -97 36 -168 132 -168 226 0 92 78 195 167 220 53 15
162 11 197 -8z m404 -133 c-3 -3 -9 2 -12 12 -6 14 -5 15 5 6 7 -7 10 -15 7
-18z m9 -147 c-2 -13 -4 -5 -4 17 -1 22 1 32 4 23 2 -10 2 -28 0 -40z m-160
-120 c-3 -8 -6 -5 -6 6 -1 11 2 17 5 13 3 -3 4 -12 1 -19z"/>
<path d="M477 4914 c-4 -4 -7 -166 -7 -361 l0 -353 380 0 380 0 -2 358 -3 357
-370 3 c-204 1 -374 0 -378 -4z"/>
<path d="M905 3838 c-371 -32 -543 -63 -777 -139 l-128 -42 0 -140 c0 -129 1
-139 17 -132 131 53 341 116 478 143 369 73 620 79 995 22 158 -24 446 -106
567 -161 23 -10 44 -19 47 -19 7 0 227 -109 281 -139 22 -13 90 -56 150 -96
394 -263 734 -648 931 -1055 76 -155 71 -145 119 -271 40 -106 86 -266 109
-379 43 -210 50 -293 50 -555 1 -268 -10 -378 -55 -575 -27 -117 -33 -140 -55
-213 -13 -43 -24 -80 -24 -83 0 -2 351 -4 780 -4 l780 0 0 1475 0 1475 -32 1
c-18 0 -473 2 -1010 3 l-976 2 -89 85 c-319 306 -778 566 -1213 686 -310 85
-709 132 -945 111z"/>
<path d="M815 3359 c-271 -28 -502 -84 -727 -177 l-88 -36 0 -1573 0 -1573
1219 0 1220 0 60 123 c84 170 131 327 156 520 19 148 19 231 0 382 -48 391
-221 732 -507 1003 -63 59 -192 162 -204 162 -4 0 -17 8 -28 19 -63 56 -353
181 -501 215 -205 47 -471 56 -660 22 -152 -28 -152 -28 -158 -12 -5 12 0 14
23 9 23 -4 31 -1 37 13 3 11 11 22 17 26 20 13 -5 22 -26 9 -18 -11 -22 -11
-31 4 -7 13 -11 14 -17 5 -4 -7 -13 -9 -19 -6 -15 10 -4 26 17 26 9 0 23 4 31
9 12 8 12 12 2 25 -17 20 -31 20 -31 1 0 -15 -21 -21 -33 -8 -12 11 27 30 88
42 33 7 76 16 95 21 109 28 429 31 571 6 137 -24 151 -28 219 -48 127 -39 186
-61 270 -103 210 -104 351 -204 513 -363 64 -63 237 -279 237 -296 0 -4 9 -20
19 -35 43 -60 132 -252 169 -366 70 -212 98 -411 89 -635 -6 -138 -38 -347
-68 -438 -36 -109 -84 -232 -105 -270 -13 -23 -24 -47 -24 -52 0 -6 24 -10 54
-10 l53 0 33 73 c50 110 57 127 79 197 71 226 109 520 91 702 -17 166 -31 261
-55 353 -84 331 -239 610 -475 858 -83 88 -251 237 -266 237 -4 0 -17 9 -28
19 -27 25 -197 123 -272 156 -106 47 -118 52 -204 83 -85 30 -164 50 -314 78
-94 18 -408 27 -513 16 l-73 -8 0 33 c0 21 6 36 15 39 20 8 9 24 -16 24 -10 0
-19 5 -19 10 0 6 7 10 15 10 8 0 15 5 15 11 0 5 -4 8 -9 4 -5 -3 -12 -1 -15 4
-34 54 461 63 709 12 304 -62 619 -205 866 -393 161 -123 322 -292 445 -470
98 -142 215 -370 254 -498 91 -293 113 -442 106 -715 -5 -195 -15 -309 -36
-405 -17 -79 -89 -309 -110 -350 -9 -19 -21 -45 -24 -58 -7 -21 -4 -22 39 -22
48 0 47 -1 75 75 4 11 15 37 24 58 9 21 20 55 25 75 5 20 21 80 35 132 41 157
58 314 58 535 1 207 -9 297 -52 485 -21 94 -28 116 -77 255 -29 83 -133 298
-181 375 -86 138 -123 189 -227 310 -53 61 -178 181 -246 236 -36 29 -72 59
-80 66 -32 32 -229 154 -328 203 -101 51 -262 118 -326 136 -16 4 -48 13 -70
19 -260 73 -581 99 -855 69 -56 -6 -102 -9 -104 -7 -1 1 -1 24 2 51 3 32 9 47
18 47 8 0 14 -9 14 -20 0 -11 -4 -20 -10 -20 -5 0 -10 -9 -10 -20 0 -11 5 -20
10 -20 6 0 10 9 10 20 0 11 4 20 10 20 5 0 7 6 4 14 -3 8 -1 17 5 21 22 13 10
25 -26 25 -43 0 -72 13 -54 25 6 3 33 8 59 9 27 1 54 6 61 11 18 10 75 14 281
19 159 4 352 -11 445 -33 317 -78 440 -121 634 -222 275 -144 512 -333 728
-583 138 -160 294 -423 372 -626 18 -47 39 -101 47 -120 20 -51 62 -214 84
-332 43 -225 50 -539 16 -758 -22 -139 -33 -190 -85 -385 -5 -16 -18 -54 -30
-83 -11 -29 -21 -55 -21 -58 0 -3 35 -4 78 -2 l77 3 36 110 c36 107 75 278
101 440 19 121 16 531 -5 675 -73 486 -289 952 -607 1305 -431 480 -1011 768
-1657 824 -137 12 -310 12 -428 0z m-226 -208 c23 -15 3 -29 -34 -25 -36 3
-48 -9 -19 -20 13 -5 14 -9 4 -22 -16 -18 -27 -8 -32 26 -2 20 3 27 27 36 39
15 38 15 54 5z m-117 -56 c4 -20 3 -23 -8 -14 -15 12 -20 54 -5 45 5 -3 11
-17 13 -31z m163 15 c3 -5 3 -15 -1 -21 -6 -11 -23 6 -24 24 0 10 18 9 25 -3z
m-35 -20 c0 -5 -9 -10 -21 -10 -17 0 -20 -5 -17 -32 2 -28 7 -32 26 -30 12 2
22 -1 22 -6 0 -8 -68 -23 -77 -18 -1 1 -4 13 -8 27 -5 21 -1 32 22 53 28 27
53 34 53 16z m35 -58 c-8 -8 -25 10 -25 26 0 13 2 13 14 -4 8 -10 13 -21 11
-22z m-141 -29 c9 -21 -10 -33 -54 -32 l-35 1 33 14 c17 8 32 19 32 24 0 16
17 11 24 -7z m214 -104 c-17 -9 -17 -12 -2 -41 15 -28 15 -32 0 -40 -14 -8
-14 -11 -1 -32 14 -21 14 -24 0 -30 -26 -10 -35 -7 -35 9 0 17 -9 19 -30 5
-13 -9 -13 -10 0 -10 11 -1 10 -4 -4 -15 -31 -23 -37 -18 -30 25 6 33 4 40
-10 40 -11 0 -16 6 -14 17 5 25 28 28 28 4 0 -24 25 -28 34 -6 3 10 -1 15 -12
16 -16 1 -16 2 1 6 9 2 17 11 17 20 0 11 -6 14 -24 9 -14 -3 -28 -2 -31 4 -9
15 32 29 85 29 35 0 41 -2 28 -10z m-145 -30 c-12 -12 -83 -18 -83 -7 0 6 30
13 75 17 14 1 16 -2 8 -10z m-73 -147 c0 -11 -41 -34 -48 -28 -3 4 3 13 14 21
21 16 34 19 34 7z m-90 -42 c0 -5 -4 -10 -10 -10 -5 0 -10 5 -10 10 0 6 5 10
10 10 6 0 10 -4 10 -10z m-55 -9 c3 -5 1 -12 -5 -16 -5 -3 -10 1 -10 9 0 18 6
21 15 7z m175 -146 c0 -12 -7 -14 -26 -9 -17 4 -29 2 -35 -7 -4 -7 -11 -10
-15 -6 -13 12 18 37 47 37 19 0 29 -5 29 -15z m-180 -39 c0 -3 -4 -8 -10 -11
-5 -3 -10 -1 -10 4 0 6 5 11 10 11 6 0 10 -2 10 -4z m160 -6 c0 -5 -7 -7 -15
-4 -8 4 -15 8 -15 10 0 2 7 4 15 4 8 0 15 -4 15 -10z m-35 -20 c4 -6 15 -8 26
-5 16 5 19 1 19 -26 0 -24 3 -29 13 -22 16 13 57 23 57 14 0 -9 -36 -27 -68
-34 -20 -5 -23 -2 -19 15 5 17 2 19 -19 15 -18 -3 -28 1 -32 12 -3 9 -13 21
-21 28 -14 11 -12 12 11 13 15 0 30 -5 33 -10z m-115 -20 c0 -5 -4 -10 -10
-10 -5 0 -10 5 -10 10 0 6 5 10 10 10 6 0 10 -4 10 -10z m51 -23 c-8 -8 -11
-7 -11 4 0 20 13 34 18 19 3 -7 -1 -17 -7 -23z m62 -33 c8 -8 -92 -56 -105
-52 -13 5 63 56 83 57 9 1 19 -2 22 -5z m-157 -82 c-17 -16 -18 -16 -5 5 7 12
15 20 18 17 3 -2 -3 -12 -13 -22z m1132 -364 c65 -21 149 -72 189 -117 56 -63
103 -169 103 -237 0 -29 3 -32 38 -37 126 -21 230 -168 199 -284 -28 -105
-152 -192 -274 -193 -84 0 -203 66 -239 132 -9 16 -14 16 -64 3 -153 -41 -333
9 -448 125 -79 78 -106 142 -106 250 0 102 21 153 96 235 124 136 318 183 506
123z m613 -190 c16 -29 2 -21 -22 15 -17 23 -18 28 -6 18 10 -8 23 -23 28 -33z
m196 -610 c-3 -8 -6 -5 -6 6 -1 11 2 17 5 13 3 -3 4 -12 1 -19z"/>
<path d="M809 3128 c-6 -21 -5 -38 2 -38 5 0 9 9 9 20 0 16 -7 28 -11 18z"/>
<path d="M730 3094 c0 -8 11 -14 25 -14 14 0 25 4 25 9 0 5 -11 11 -25 13 -17
4 -25 1 -25 -8z"/>
<path d="M890 3100 c0 -5 5 -10 11 -10 5 0 7 5 4 10 -3 6 -8 10 -11 10 -2 0
-4 -4 -4 -10z"/>
<path d="M797 2873 c-4 -3 -7 -11 -7 -17 0 -6 5 -5 12 2 6 6 9 14 7 17 -3 3
-9 2 -12 -2z"/>
<path d="M775 2810 c3 -5 8 -10 11 -10 2 0 4 5 4 10 0 6 -5 10 -11 10 -5 0 -7
-4 -4 -10z"/>
<path d="M710 2576 c0 -2 7 -7 16 -10 8 -3 12 -2 9 4 -6 10 -25 14 -25 6z"/>
<path d="M734 2525 c-10 -8 -14 -14 -9 -15 15 0 40 18 34 24 -3 3 -14 -1 -25
-9z"/>
<path d="M820 2505 c0 -14 4 -25 9 -25 4 0 6 11 3 25 -2 14 -6 25 -8 25 -2 0
-4 -11 -4 -25z"/>
<path d="M695 2480 c3 -5 10 -10 16 -10 5 0 9 5 9 10 0 6 -7 10 -16 10 -8 0
-12 -4 -9 -10z"/>
<path d="M2705 1070 c3 -5 13 -10 21 -10 8 0 14 5 14 10 0 6 -9 10 -21 10 -11
0 -17 -4 -14 -10z"/>
</g>
</svg>
